<?xml version="1.0" encoding="UTF-8"?>
<!DOCTYPE svg PUBLIC "-//W3C//DTD SVG 1.0//EN" "http://www.w3.org/TR/2001/REC-SVG-20010904/DTD/svg10.dtd">
<svg xmlns="http://www.w3.org/2000/svg" width="100%" height="100%">
    <desc></desc>
   
        <g alignment-baseline="baseline" transform= "translate (80,350)">
            
            <text x="50" y="50">Black Pepper</text>
            <text x="160" y="50">Cardamom</text>
            <text x="270" y="50">Cinnamon</text>
            <text x="380" y="50">Cumin</text>
            <text x="490" y="50">Garlic</text>
            <text x="600" y="50">Ginger</text>
            <text x="710" y="50">Nutmeg</text>
            <text x="820" y="50">Saffron</text>
            <text x="930" y="50">Tumeric</text>
            
            <text x="-2" y="-15">1</text>
            <text x="-2" y="-45">2</text>
            <text x="-2" y="-75">3</text>
            <text x="-2" y="-105">4</text>
            <text x="-2" y="-135">5</text>
            <text x="-2" y="-165">6</text>
            <text x="-2" y="-195">7</text>
            <text x="-2" y="-225">8</text>
            <text x="-2" y="-255">9</text>
            <text x="-2" y="-285">10</text>
            <text x="350" y="-300">The Heat Index of the Most Common Spices of the Silk Trade Route</text>
            <text x="-20" y="-200" style="writing-mode: tb">Heat Index***</text>
            <text x ="500" y="120">Most Common Spices</text>
            <line x1="25" y1="0" x2="1000" y2="0" stroke="black" stroke-width="5"/>
            <line x1="25" y1="2" x2="25"  y2="-300" stroke="purple" stroke-width="5"/>
            <rect x="70" y="-145"  width="30" height="145" fill="blue"/>
            <rect x="175" y="-45" width="30" height="45" fill="purple"/>
            <rect x="285" y="-75" width="30" height= "75" fill="pink"/>
            <rect x="380" y="-105" width="30" height= "105" fill="orange"/>
            <rect x="490" y="-105" width="30" height= "105" fill="red"/>
            <rect x="605" y="-195" width="30" height= "195" fill="green"/>
            <rect x="715" y="-15" width="30" height= "15" fill="brown"/>
            <rect x="825" y="-3" width="30" height= "3" fill="teal"/>
            <rect x="940" y="-75" width="30" height= "75" fill="lavender"/>
            <text x ="400" y="170">***Heat Index based on a scale of 1-10 (10 being the hottest)</text>
        </g>
</svg>